<svg id="visual" viewBox="0 0 960 540" width="960" height="540" xmlns="http://www.w3.org/2000/svg" xmlns:xlink="http://www.w3.org/1999/xlink" version="1.1"><path d="M0 346L22.8 341.3C45.7 336.7 91.3 327.3 137 333.5C182.7 339.7 228.3 361.3 274 370.8C319.7 380.3 365.3 377.7 411.2 372.7C457 367.7 503 360.3 548.8 363.7C594.7 367 640.3 381 686 385.3C731.7 389.7 777.3 384.3 823 379.5C868.7 374.7 914.3 370.3 937.2 368.2L960 366L960 541L937.2 541C914.3 541 868.7 541 823 541C777.3 541 731.7 541 686 541C640.3 541 594.7 541 548.8 541C503 541 457 541 411.2 541C365.3 541 319.7 541 274 541C228.3 541 182.7 541 137 541C91.3 541 45.7 541 22.8 541L0 541Z" fill="#fa7268"></path><path d="M0 402L22.8 402.3C45.7 402.7 91.3 403.3 137 395.8C182.7 388.3 228.3 372.7 274 376.7C319.7 380.7 365.3 404.3 411.2 413.3C457 422.3 503 416.7 548.8 408.8C594.7 401 640.3 391 686 383C731.7 375 777.3 369 823 372.7C868.7 376.3 914.3 389.7 937.2 396.3L960 403L960 541L937.2 541C914.3 541 868.7 541 823 541C777.3 541 731.7 541 686 541C640.3 541 594.7 541 548.8 541C503 541 457 541 411.2 541C365.3 541 319.7 541 274 541C228.3 541 182.7 541 137 541C91.3 541 45.7 541 22.8 541L0 541Z" fill="#ef5f67"></path><path d="M0 426L22.8 426.3C45.7 426.7 91.3 427.3 137 428.5C182.7 429.7 228.3 431.3 274 429C319.7 426.7 365.3 420.3 411.2 424.3C457 428.3 503 442.7 548.8 449.2C594.7 455.7 640.3 454.3 686 451.7C731.7 449 777.3 445 823 437.2C868.7 429.3 914.3 417.7 937.2 411.8L960 406L960 541L937.2 541C914.3 541 868.7 541 823 541C777.3 541 731.7 541 686 541C640.3 541 594.7 541 548.8 541C503 541 457 541 411.2 541C365.3 541 319.7 541 274 541C228.3 541 182.7 541 137 541C91.3 541 45.7 541 22.8 541L0 541Z" fill="#e34c67"></path><path d="M0 478L22.8 478.5C45.7 479 91.3 480 137 476.5C182.7 473 228.3 465 274 461.8C319.7 458.7 365.3 460.3 411.2 457.3C457 454.3 503 446.7 548.8 448.2C594.7 449.7 640.3 460.3 686 463.7C731.7 467 777.3 463 823 456.7C868.7 450.3 914.3 441.7 937.2 437.3L960 433L960 541L937.2 541C914.3 541 868.7 541 823 541C777.3 541 731.7 541 686 541C640.3 541 594.7 541 548.8 541C503 541 457 541 411.2 541C365.3 541 319.7 541 274 541C228.3 541 182.7 541 137 541C91.3 541 45.7 541 22.8 541L0 541Z" fill="#d53867"></path><path d="M0 501L22.8 502.5C45.7 504 91.3 507 137 507.2C182.7 507.3 228.3 504.7 274 505.5C319.7 506.3 365.3 510.7 411.2 508.7C457 506.7 503 498.3 548.8 493.3C594.7 488.3 640.3 486.7 686 489.7C731.7 492.7 777.3 500.3 823 504.3C868.7 508.3 914.3 508.7 937.2 508.8L960 509L960 541L937.2 541C914.3 541 868.7 541 823 541C777.3 541 731.7 541 686 541C640.3 541 594.7 541 548.8 541C503 541 457 541 411.2 541C365.3 541 319.7 541 274 541C228.3 541 182.7 541 137 541C91.3 541 45.7 541 22.8 541L0 541Z" fill="#c62368"></path></svg>